<?xml version="1.0" encoding="UTF-8" standalone="no"?>
<svg
   xmlns:dc="http://purl.org/dc/elements/1.1/"
   xmlns:cc="http://creativecommons.org/ns#"
   xmlns:rdf="http://www.w3.org/1999/02/22-rdf-syntax-ns#"
   xmlns:svg="http://www.w3.org/2000/svg"
   xmlns="http://www.w3.org/2000/svg"
   viewBox="0 0 737.41333 116.54667"
   height="116.54667"
   width="737.41333"
   xml:space="preserve"
   id="svg2"
   version="1.1"><metadata
     id="metadata8"><rdf:RDF><cc:Work
         rdf:about=""><dc:format>image/svg+xml</dc:format><dc:type
           rdf:resource="http://purl.org/dc/dcmitype/StillImage" /></cc:Work></rdf:RDF></metadata><defs
     id="defs6"><clipPath
       id="clipPath20"
       clipPathUnits="userSpaceOnUse"><path
         id="path18"
         d="M 543.184,839.355 C 243.242,839.355 0,690.012 0,505.867 0,321.563 243.242,172.078 543.184,172.078 c 300.019,0 543.476,149.485 543.476,333.789 0,184.145 -243.457,333.488 -543.476,333.488" /></clipPath><clipPath
       id="clipPath26"
       clipPathUnits="userSpaceOnUse"><path
         id="path24"
         d="M 0,172.078 H 1086.66 V 839.355 H 0 Z" /></clipPath><linearGradient
       id="linearGradient38"
       spreadMethod="pad"
       gradientTransform="matrix(1086.75,0,0,707.275,-0.112305,152.08)"
       gradientUnits="userSpaceOnUse"
       y2="0"
       x2="1"
       y1="0"
       x1="0"><stop
         id="stop30"
         offset="0"
         style="stop-opacity:1;stop-color:#54585c" /><stop
         id="stop32"
         offset="0.3764"
         style="stop-opacity:1;stop-color:#ffffff" /><stop
         id="stop34"
         offset="0.75281"
         style="stop-opacity:1;stop-color:#54585c" /><stop
         id="stop36"
         offset="1"
         style="stop-opacity:1;stop-color:#ffffff" /></linearGradient><clipPath
       id="clipPath48"
       clipPathUnits="userSpaceOnUse"><path
         id="path46"
         d="M 0,4 H 5530 V 874 H 0 Z" /></clipPath><clipPath
       id="clipPath54"
       clipPathUnits="userSpaceOnUse"><path
         id="path52"
         d="m 840.918,819.699 c -13.516,5.281 -27.031,10.34 -41.516,15 -4.683,1.688 -9.324,3.047 -13.941,4.403 -13.977,4.328 -28.281,8.378 -42.895,11.75 -6.57,1.757 -13.25,3.328 -20.125,4.531 -14.433,3.047 -29.043,6.082 -44.062,8.308 C 635,870.586 589.883,874.094 543.184,874.094 243.242,874.094 0,724.688 0,540.586 0,399.348 142.715,278.66 344.297,229.805 c 53.574,-12.989 111.172,-20.821 171.543,-22.45 8.965,-0.41 18.32,-0.539 27.344,-0.539 7.636,0 15.019,0.059 22.187,0.332 52.461,1.29 103.184,7.168 150.938,16.836 13.789,2.903 27.675,6.289 41.113,9.805 46.433,12.219 89.707,28.32 128.379,47.766 122.539,61.172 200.859,154.48 200.859,259.031 0,116.719 -97.676,219.441 -245.742,279.113" /></clipPath><clipPath
       id="clipPath60"
       clipPathUnits="userSpaceOnUse"><path
         id="path58"
         d="M 0,206.816 H 1086.66 V 874.093 H 0 Z" /></clipPath><linearGradient
       id="linearGradient72"
       spreadMethod="pad"
       gradientTransform="matrix(0,-680.876,1126.66,0,-20,879.375)"
       gradientUnits="userSpaceOnUse"
       y2="0"
       x2="1"
       y1="0"
       x1="0"><stop
         id="stop64"
         offset="0"
         style="stop-opacity:1;stop-color:#84898c" /><stop
         id="stop66"
         offset="0.3764"
         style="stop-opacity:1;stop-color:#ffffff" /><stop
         id="stop68"
         offset="0.75281"
         style="stop-opacity:1;stop-color:#b0b4b5" /><stop
         id="stop70"
         offset="1"
         style="stop-opacity:1;stop-color:#ffffff" /></linearGradient><clipPath
       id="clipPath82"
       clipPathUnits="userSpaceOnUse"><path
         id="path80"
         d="M 0,4 V 874 H 5530 V 4 Z" /></clipPath></defs><g
     transform="matrix(1.3333333,0,0,-1.3333333,0,116.54667)"
     id="g10"><g
       transform="scale(0.1)"
       id="g12"><g
         id="g14"><g
           clip-path="url(#clipPath20)"
           id="g16"><g
             clip-path="url(#clipPath26)"
             id="g22"><path
               id="path28"
               style="fill:#54585c;fill-opacity:1;fill-rule:nonzero;stroke:none"
               d="M 0,172.078 H 1086.66 V 839.355 H 0 Z" /><path
               id="path40"
               style="fill:url(#linearGradient38);fill-opacity:1;fill-rule:nonzero;stroke:none"
               d="m 504,172 v 1 h -19 v 1 h -13 v 1 h -13 v 1 h -9 v 1 h -9 v 1 h -9 v 1 h -7 v 1 h -7 v 1 h -7 v 1 h -6 v 1 h -6 v 1 h -6 v 1 h -6 v 1 h -5 v 1 h -5 v 1 h -5 v 1 h -5 v 1 h -5 v 1 h -4 v 1 h -5 v 1 h -4 v 1 h -4 v 1 h -4 v 1 h -4 v 1 h -4 v 1 h -4 v 1 h -4 v 1 h -3 v 1 h -4 v 1 h -4 v 1 h -3 v 1 h -4 v 1 h -3 v 1 h -3 v 1 h -3 v 1 h -3 v 1 h -4 v 1 h -3 v 1 h -3 v 1 h -3 v 1 h -3 v 1 h -3 v 1 h -2 v 1 h -3 v 1 h -3 v 1 h -3 v 1 h -3 v 1 h -2 v 1 h -3 v 1 h -3 v 1 h -2 v 1 h -3 v 1 h -2 v 1 h -3 v 1 h -2 v 1 h -3 v 1 h -2 v 1 h -2 v 1 h -3 v 1 h -2 v 1 h -2 v 1 h -2 v 1 h -3 v 1 h -2 v 1 h -2 v 1 h -3 v 1 h -2 v 1 h -2 v 1 h -2 v 1 h -2 v 1 h -2 v 1 h -2 v 1 h -2 v 1 h -2 v 1 h -2 v 1 h -2 v 1 h -2 v 1 h -2 v 1 h -2 v 1 h -2 v 1 h -1 v 1 h -2 v 1 h -2 v 1 h -2 v 1 h -2 v 1 h -2 v 1 h -2 v 1 h -1 v 1 h -2 v 1 h -2 v 1 h -1 v 1 h -2 v 1 h -2 v 1 h -2 v 1 h -1 v 1 h -2 v 1 h -2 v 1 h -1 v 1 h -2 v 1 h -1 v 1 h -2 v 1 h -1 v 1 h -2 v 1 h -1 v 1 h -2 v 1 h -2 v 1 h -1 v 1 h -2 v 1 h -1 v 1 h -2 v 1 h -1 v 1 h -1 v 1 h -2 v 1 h -1 v 1 h -2 v 1 h -1 v 1 h -1 v 1 h -2 v 1 h -1 v 1 h -2 v 1 h -1 v 1 h -1 v 1 h -2 v 1 h -1 v 1 h -1 v 1 h -1 v 1 h -2 v 1 h -1 v 1 h -1 v 1 h -2 v 1 h -1 v 1 h -1 v 1 h -1 v 1 h -2 v 1 h -1 v 1 h -1 v 1 h -1 v 1 h -1 v 1 h -1 v 1 h -1 v 1 h -2 v 1 h -1 v 1 h -1 v 1 h -1 v 1 h -1 v 1 h -1 v 1 h -1 v 1 h -2 v 1 h -1 v 1 h -1 v 1 h -1 v 1 h -1 v 1 h -1 v 1 h -1 v 1 h -1 v 1 h -1 v 1 h -1 v 1 h -1 v 1 h -1 v 1 h -1 v 1 h -1 v 1 h -1 v 1 h -1 v 1 h -1 v 1 h -1 v 1 h -1 v 1 h -1 v 1 h -1 v 2 h -1 v 1 h -1 v 1 h -1 v 1 h -1 v 1 h -1 v 1 h -1 v 1 h -1 v 1 h -1 v 2 h -1 v 1 h -1 v 1 h -1 v 1 h -1 v 1 h -1 v 2 h -1 v 1 h -1 v 1 h -1 v 1 h -1 v 1 h -1 v 2 h -1 v 1 h -1 v 2 h -1 v 1 h -1 v 1 h -1 v 2 h -1 v 1 h -1 v 1 h -1 v 2 h -1 v 1 h -1 v 2 h -1 v 1 h -1 v 2 h -1 v 1 h -1 v 2 h -1 v 1 h -1 v 2 h -1 v 1 h -1 v 2 h -1 v 2 h -1 v 1 h -1 v 2 h -1 v 2 h -1 v 2 h -1 v 2 h -1 v 1 h -1 v 2 h -1 v 2 h -1 v 2 h -1 v 2 h -1 v 2 h -1 v 3 h -1 v 2 h -1 v 2 h -1 v 2 h -1 v 2 h -1 v 3 h -1 v 3 h -1 v 2 h -1 v 3 h -1 v 3 h -1 v 2 h -1 v 4 H 9 v 3 H 8 v 4 H 7 v 3 H 6 v 4 H 5 v 5 H 4 v 4 H 3 v 5 H 2 v 8 H 1 v 8 H 0 v 40 h 1 v 8 h 1 v 7 h 1 v 5 h 1 v 5 h 1 v 5 h 1 v 4 h 1 v 3 h 1 v 4 h 1 v 3 h 1 v 3 h 1 v 3 h 1 v 3 h 1 v 2 h 1 v 3 h 1 v 3 h 1 v 2 h 1 v 3 h 1 v 2 h 1 v 2 h 1 v 2 h 1 v 2 h 1 v 2 h 1 v 3 h 1 v 2 h 1 v 1 h 1 v 2 h 1 v 2 h 1 v 2 h 1 v 2 h 1 v 1 h 1 v 2 h 1 v 2 h 1 v 2 h 1 v 1 h 1 v 2 h 1 v 1 h 1 v 2 h 1 v 1 h 1 v 2 h 1 v 2 h 1 v 1 h 1 v 2 h 1 v 1 h 1 v 1 h 1 v 2 h 1 v 1 h 1 v 1 h 1 v 2 h 1 v 1 h 1 v 1 h 1 v 2 h 1 v 1 h 1 v 1 h 1 v 2 h 1 v 1 h 1 v 1 h 1 v 1 h 1 v 1 h 1 v 2 h 1 v 1 h 1 v 1 h 1 v 1 h 1 v 1 h 1 v 2 h 1 v 1 h 1 v 1 h 1 v 1 h 1 v 1 h 1 v 1 h 1 v 1 h 1 v 1 h 1 v 1 h 1 v 1 h 1 v 1 h 1 v 1 h 1 v 2 h 1 v 1 h 1 v 1 h 1 v 1 h 1 v 1 h 2 v 1 h 1 v 1 h 1 v 1 h 1 v 1 h 1 v 1 h 1 v 1 h 1 v 1 h 1 v 1 h 1 v 1 h 1 v 1 h 1 v 1 h 1 v 1 h 1 v 1 h 1 v 1 h 2 v 1 h 1 v 1 h 1 v 1 h 1 v 1 h 1 v 1 h 1 v 1 h 2 v 1 h 1 v 1 h 1 v 1 h 1 v 1 h 1 v 1 h 1 v 1 h 2 v 1 h 1 v 1 h 1 v 1 h 2 v 1 h 1 v 1 h 1 v 1 h 1 v 1 h 2 v 1 h 1 v 1 h 1 v 1 h 2 v 1 h 1 v 1 h 1 v 1 h 2 v 1 h 1 v 1 h 2 v 1 h 1 v 1 h 1 v 1 h 2 v 1 h 1 v 1 h 2 v 1 h 1 v 1 h 2 v 1 h 1 v 1 h 2 v 1 h 1 v 1 h 2 v 1 h 1 v 1 h 2 v 1 h 1 v 1 h 2 v 1 h 1 v 1 h 2 v 1 h 2 v 1 h 1 v 1 h 2 v 1 h 2 v 1 h 1 v 1 h 2 v 1 h 2 v 1 h 1 v 1 h 2 v 1 h 2 v 1 h 2 v 1 h 1 v 1 h 2 v 1 h 2 v 1 h 2 v 1 h 2 v 1 h 2 v 1 h 1 v 1 h 2 v 1 h 2 v 1 h 2 v 1 h 2 v 1 h 2 v 1 h 2 v 1 h 2 v 1 h 2 v 1 h 2 v 1 h 2 v 1 h 2 v 1 h 2 v 1 h 2 v 1 h 2 v 1 h 3 v 1 h 2 v 1 h 2 v 1 h 2 v 1 h 3 v 1 h 2 v 1 h 2 v 1 h 3 v 1 h 2 v 1 h 2 v 1 h 3 v 1 h 2 v 1 h 3 v 1 h 2 v 1 h 3 v 1 h 2 v 1 h 3 v 1 h 2 v 1 h 3 v 1 h 3 v 1 h 3 v 1 h 2 v 1 h 3 v 1 h 3 v 1 h 3 v 1 h 3 v 1 h 3 v 1 h 3 v 1 h 3 v 1 h 3 v 1 h 3 v 1 h 3 v 1 h 4 v 1 h 3 v 1 h 3 v 1 h 4 v 1 h 3 v 1 h 4 v 1 h 4 v 1 h 3 v 1 h 4 v 1 h 4 v 1 h 4 v 1 h 4 v 1 h 4 v 1 h 4 v 1 h 4 v 1 h 5 v 1 h 5 v 1 h 5 v 1 h 5 v 1 h 4 v 1 h 6 v 1 h 6 v 1 h 5 v 1 h 6 v 1 h 6 v 1 h 7 v 1 h 7 v 1 h 7 v 1 h 8 v 1 h 9 v 1 h 9 v 1 h 11 v 1 h 13 v 1 h 16 v 1 h 24 v 1 h 49 v -1 h 23 v -1 h 16 v -1 h 13 v -1 h 11 v -1 h 9 v -1 h 9 v -1 h 8 v -1 h 7 v -1 h 7 v -1 h 7 v -1 h 6 v -1 h 6 v -1 h 6 v -1 h 6 v -1 h 5 v -1 h 5 v -1 h 5 v -1 h 4 v -1 h 5 v -1 h 5 v -1 h 4 v -1 h 4 v -1 h 4 v -1 h 4 v -1 h 5 v -1 h 4 v -1 h 3 v -1 h 4 v -1 h 3 v -1 h 4 v -1 h 4 v -1 h 3 v -1 h 4 v -1 h 3 v -1 h 3 v -1 h 3 v -1 h 3 v -1 h 4 v -1 h 3 v -1 h 3 v -1 h 3 v -1 h 3 v -1 h 2 v -1 h 3 v -1 h 3 v -1 h 3 v -1 h 3 v -1 h 3 v -1 h 2 v -1 h 3 v -1 h 2 v -1 h 3 v -1 h 2 v -1 h 3 v -1 h 2 v -1 h 3 v -1 h 2 v -1 h 3 v -1 h 2 v -1 h 2 v -1 h 3 v -1 h 2 v -1 h 2 v -1 h 2 v -1 h 3 v -1 h 2 v -1 h 2 v -1 h 2 v -1 h 2 v -1 h 2 v -1 h 2 v -1 h 2 v -1 h 2 v -1 h 3 v -1 h 2 v -1 h 2 v -1 h 2 v -1 h 1 v -1 h 2 v -1 h 2 v -1 h 2 v -1 h 2 v -1 h 2 v -1 h 2 v -1 h 2 v -1 h 1 v -1 h 2 v -1 h 2 v -1 h 2 v -1 h 1 v -1 h 2 v -1 h 2 v -1 h 2 v -1 h 1 v -1 h 2 v -1 h 2 v -1 h 1 v -1 h 2 v -1 h 2 v -1 h 1 v -1 h 2 v -1 h 1 v -1 h 2 v -1 h 1 v -1 h 2 v -1 h 1 v -1 h 2 v -1 h 1 v -1 h 2 v -1 h 1 v -1 h 2 v -1 h 1 v -1 h 2 v -1 h 1 v -1 h 2 v -1 h 1 v -1 h 1 v -1 h 2 v -1 h 1 v -1 h 2 v -1 h 1 v -1 h 1 v -1 h 2 v -1 h 1 v -1 h 1 v -1 h 1 v -1 h 2 v -1 h 1 v -1 h 1 v -1 h 2 v -1 h 1 v -1 h 1 v -1 h 1 v -1 h 2 v -1 h 1 v -1 h 1 v -1 h 1 v -1 h 1 v -1 h 1 v -1 h 2 v -1 h 1 v -1 h 1 v -1 h 1 v -1 h 1 v -1 h 1 v -1 h 1 v -1 h 2 v -1 h 1 v -1 h 1 v -1 h 1 v -1 h 1 v -1 h 1 v -1 h 1 v -1 h 1 v -1 h 1 v -1 h 1 v -1 h 1 v -1 h 1 v -1 h 1 v -1 h 1 v -1 h 1 v -1 h 1 v -1 h 1 v -1 h 1 v -1 h 1 v -1 h 1 v -1 h 1 v -1 h 1 v -1 h 1 v -1 h 1 v -1 h 1 v -2 h 1 v -1 h 1 v -1 h 1 v -1 h 1 v -1 h 1 v -1 h 1 v -1 h 1 v -2 h 1 v -1 h 1 v -1 h 1 v -1 h 1 v -1 h 1 v -2 h 1 v -1 h 1 v -1 h 1 v -1 h 1 v -2 h 1 v -1 h 1 v -1 h 1 v -2 h 1 v -1 h 1 v -2 h 1 v -1 h 1 v -1 h 1 v -2 h 1 v -1 h 1 v -2 h 1 v -1 h 1 v -2 h 1 v -1 h 1 v -2 h 1 v -1 h 1 v -2 h 1 v -1 h 1 v -2 h 1 v -2 h 1 v -1 h 1 v -2 h 1 v -2 h 1 v -2 h 1 v -2 h 1 v -1 h 1 v -2 h 1 v -2 h 1 v -2 h 1 v -2 h 1 v -3 h 1 v -2 h 1 v -2 h 1 v -2 h 1 v -2 h 1 v -3 h 1 v -2 h 1 v -3 h 1 v -2 h 1 v -3 h 1 v -3 h 1 v -3 h 1 v -3 h 1 v -4 h 1 v -3 h 1 v -4 h 1 v -4 h 1 v -5 h 1 v -4 h 1 v -6 h 1 v -8 h 1 v -8 h 1 v -34 h -1 v -8 h -1 v -9 h -1 v -5 h -1 v -5 h -1 v -5 h -1 v -4 h -1 v -3 h -1 v -4 h -1 v -3 h -1 v -4 h -1 v -3 h -1 v -2 h -1 v -3 h -1 v -2 h -1 v -3 h -1 v -3 h -1 v -2 h -1 v -2 h -1 v -3 h -1 v -2 h -1 v -2 h -1 v -2 h -1 v -2 h -1 v -2 h -1 v -2 h -1 v -2 h -1 v -2 h -1 v -2 h -1 v -1 h -1 v -2 h -1 v -2 h -1 v -2 h -1 v -1 h -1 v -2 h -1 v -2 h -1 v -1 h -1 v -2 h -1 v -1 h -1 v -2 h -1 v -1 h -1 v -2 h -1 v -1 h -1 v -2 h -1 v -1 h -1 v -2 h -1 v -1 h -1 v -1 h -1 v -2 h -1 v -1 h -1 v -1 h -1 v -2 h -1 v -1 h -1 v -1 h -1 v -2 h -1 v -1 h -1 v -1 h -1 v -1 h -1 v -1 h -1 v -2 h -1 v -1 h -1 v -1 h -1 v -1 h -1 v -1 h -1 v -2 h -1 v -1 h -1 v -1 h -1 v -1 h -1 v -1 h -1 v -1 h -1 v -1 h -1 v -1 h -1 v -1 h -1 v -1 h -1 v -1 h -1 v -1 h -1 v -2 h -1 v -1 h -1 v -1 h -1 v -1 h -1 v -1 h -1 v -1 h -2 v -1 h -1 v -1 h -1 v -1 h -1 v -1 h -1 v -1 h -1 v -1 h -1 v -1 h -1 v -1 h -1 v -1 h -1 v -1 h -1 v -1 h -1 v -1 h -1 v -1 h -1 v -1 h -2 v -1 h -1 v -1 h -1 v -1 h -1 v -1 h -1 v -1 h -1 v -1 h -2 v -1 h -1 v -1 h -1 v -1 h -1 v -1 h -1 v -1 h -2 v -1 h -1 v -1 h -1 v -1 h -1 v -1 h -2 v -1 h -1 v -1 h -1 v -1 h -2 v -1 h -1 v -1 h -1 v -1 h -1 v -1 h -2 v -1 h -1 v -1 h -2 v -1 h -1 v -1 h -1 v -1 h -2 v -1 h -1 v -1 h -2 v -1 h -1 v -1 h -1 v -1 h -2 v -1 h -1 v -1 h -2 v -1 h -1 v -1 h -2 v -1 h -1 v -1 h -2 v -1 h -2 v -1 h -1 v -1 h -2 v -1 h -1 v -1 h -2 v -1 h -1 v -1 h -2 v -1 h -2 v -1 h -1 v -1 h -2 v -1 h -2 v -1 h -1 v -1 h -2 v -1 h -2 v -1 h -1 v -1 h -2 v -1 h -2 v -1 h -2 v -1 h -1 v -1 h -2 v -1 h -2 v -1 h -2 v -1 h -2 v -1 h -2 v -1 h -2 v -1 h -2 v -1 h -2 v -1 h -1 v -1 h -2 v -1 h -2 v -1 h -2 v -1 h -3 v -1 h -2 v -1 h -2 v -1 h -2 v -1 h -2 v -1 h -2 v -1 h -2 v -1 h -2 v -1 h -2 v -1 h -3 v -1 h -2 v -1 h -2 v -1 h -3 v -1 h -2 v -1 h -2 v -1 h -2 v -1 h -3 v -1 h -2 v -1 h -3 v -1 h -2 v -1 h -3 v -1 h -2 v -1 h -3 v -1 h -3 v -1 h -2 v -1 h -3 v -1 h -3 v -1 h -2 v -1 h -3 v -1 h -3 v -1 h -3 v -1 h -3 v -1 h -3 v -1 h -3 v -1 h -3 v -1 h -3 v -1 h -3 v -1 h -3 v -1 h -3 v -1 h -4 v -1 h -3 v -1 h -3 v -1 h -4 v -1 h -4 v -1 h -3 v -1 h -4 v -1 h -3 v -1 h -4 v -1 h -4 v -1 h -4 v -1 h -5 v -1 h -4 v -1 h -4 v -1 h -4 v -1 h -5 v -1 h -5 v -1 h -5 v -1 h -4 v -1 h -5 v -1 h -6 v -1 h -6 v -1 h -5 v -1 h -6 v -1 h -7 v -1 h -7 v -1 h -7 v -1 h -7 v -1 h -9 v -1 h -9 v -1 h -9 v -1 h -12 v -1 h -13 v -1 h -20 v -1" /></g></g></g><g
         id="g42"><g
           clip-path="url(#clipPath48)"
           id="g44"><g
             clip-path="url(#clipPath54)"
             id="g50"><g
               clip-path="url(#clipPath60)"
               id="g56"><path
                 id="path62"
                 style="fill:#84898c;fill-opacity:1;fill-rule:nonzero;stroke:none"
                 d="M 0,206.816 H 1086.66 V 874.093 H 0 Z" /><path
                 id="path74"
                 style="fill:url(#linearGradient72);fill-opacity:1;fill-rule:nonzero;stroke:none"
                 d="m 528,206 v 1 h -29 v 1 h -17 v 1 h -14 v 1 h -9 v 1 h -10 v 1 h -9 v 1 h -10 v 1 h -7 v 1 h -7 v 1 h -6 v 1 h -6 v 1 h -6 v 1 h -7 v 1 h -6 v 1 h -5 v 1 h -5 v 1 h -5 v 1 h -5 v 1 h -4 v 1 h -5 v 1 h -5 v 1 h -4 v 1 h -4 v 1 h -4 v 1 h -4 v 1 h -4 v 1 h -3 v 1 h -4 v 1 h -4 v 1 h -3 v 1 h -4 v 1 h -3 v 1 h -4 v 1 h -3 v 1 h -3 v 1 h -3 v 1 h -3 v 1 h -3 v 1 h -3 v 1 h -3 v 1 h -3 v 1 h -4 v 1 h -3 v 1 h -3 v 1 h -2 v 1 h -3 v 1 h -3 v 1 h -2 v 1 h -3 v 1 h -2 v 1 h -3 v 1 h -3 v 1 h -2 v 1 h -3 v 1 h -2 v 1 h -3 v 1 h -2 v 1 h -3 v 1 h -2 v 1 h -2 v 1 h -3 v 1 h -2 v 1 h -2 v 1 h -2 v 1 h -2 v 1 h -3 v 1 h -2 v 1 h -2 v 1 h -2 v 1 h -2 v 1 h -3 v 1 h -2 v 1 h -2 v 1 h -2 v 1 h -2 v 1 h -1 v 1 h -2 v 1 h -2 v 1 h -2 v 1 h -2 v 1 h -2 v 1 h -2 v 1 h -2 v 1 h -2 v 1 h -2 v 1 h -1 v 1 h -2 v 1 h -2 v 1 h -2 v 1 h -2 v 1 h -1 v 1 h -2 v 1 h -1 v 1 h -2 v 1 h -2 v 1 h -1 v 1 h -2 v 1 h -2 v 1 h -1 v 1 h -2 v 1 h -2 v 1 h -1 v 1 h -2 v 1 h -1 v 1 h -2 v 1 h -2 v 1 h -1 v 1 h -1 v 1 h -2 v 1 h -1 v 1 h -2 v 1 h -1 v 1 h -2 v 1 h -1 v 1 h -1 v 1 h -2 v 1 h -1 v 1 h -2 v 1 h -1 v 1 h -1 v 1 h -2 v 1 h -1 v 1 h -2 v 1 h -1 v 1 h -1 v 1 h -2 v 1 h -1 v 1 h -1 v 1 h -1 v 1 h -1 v 1 h -2 v 1 h -1 v 1 h -1 v 1 h -1 v 1 h -2 v 1 h -1 v 1 h -1 v 1 h -1 v 1 h -1 v 1 h -2 v 1 h -1 v 1 h -1 v 1 h -1 v 1 h -1 v 1 h -1 v 1 h -1 v 1 h -2 v 1 h -1 v 1 h -1 v 1 h -1 v 1 h -1 v 1 h -1 v 1 h -1 v 1 h -1 v 1 h -1 v 1 h -1 v 1 h -1 v 1 h -1 v 1 h -1 v 1 h -1 v 1 h -1 v 1 h -1 v 1 h -1 v 1 h -1 v 1 h -1 v 1 h -1 v 1 h -1 v 1 h -1 v 1 h -1 v 1 h -1 v 2 h -1 v 1 h -1 v 1 h -1 v 1 h -1 v 1 h -1 v 1 h -1 v 1 h -1 v 2 h -1 v 1 h -1 v 1 h -1 v 1 h -1 v 1 h -1 v 1 h -1 v 1 h -1 v 2 h -1 v 1 h -1 v 1 h -1 v 2 h -1 v 1 h -1 v 2 h -1 v 1 h -1 v 1 h -1 v 2 h -1 v 1 h -1 v 1 h -1 v 2 h -1 v 1 h -1 v 1 h -1 v 2 h -1 v 1 h -1 v 2 h -1 v 1 h -1 v 2 h -1 v 2 h -1 v 2 h -1 v 1 h -1 v 2 h -1 v 2 h -1 v 1 h -1 v 2 h -1 v 2 h -1 v 1 h -1 v 2 h -1 v 2 h -1 v 2 h -1 v 2 h -1 v 2 h -1 v 2 h -1 v 3 h -1 v 2 h -1 v 2 h -1 v 2 h -1 v 3 h -1 v 2 h -1 v 2 h -1 v 3 h -1 v 3 h -1 v 3 h -1 v 3 h -1 v 3 H 9 v 3 H 8 v 4 H 7 v 3 H 6 v 4 H 5 v 5 H 4 v 5 H 3 v 6 H 2 v 5 H 1 v 10 H 0 v 39 h 1 v 8 h 1 v 7 h 1 v 5 h 1 v 5 h 1 v 5 h 1 v 3 h 1 v 4 h 1 v 3 h 1 v 4 h 1 v 3 h 1 v 3 h 1 v 2 h 1 v 3 h 1 v 3 h 1 v 2 h 1 v 3 h 1 v 2 h 1 v 2 h 1 v 3 h 1 v 2 h 1 v 2 h 1 v 2 h 1 v 2 h 1 v 2 h 1 v 2 h 1 v 2 h 1 v 2 h 1 v 2 h 1 v 1 h 1 v 2 h 1 v 2 h 1 v 2 h 1 v 1 h 1 v 2 h 1 v 1 h 1 v 2 h 1 v 2 h 1 v 1 h 1 v 2 h 1 v 1 h 1 v 2 h 1 v 1 h 1 v 2 h 1 v 1 h 1 v 1 h 1 v 2 h 1 v 1 h 1 v 1 h 1 v 2 h 1 v 1 h 1 v 1 h 1 v 2 h 1 v 1 h 1 v 1 h 1 v 2 h 1 v 1 h 1 v 1 h 1 v 1 h 1 v 1 h 1 v 2 h 1 v 1 h 1 v 1 h 1 v 1 h 1 v 1 h 1 v 1 h 1 v 2 h 1 v 1 h 1 v 1 h 1 v 1 h 1 v 1 h 1 v 1 h 1 v 1 h 1 v 1 h 1 v 1 h 1 v 1 h 1 v 1 h 1 v 1 h 1 v 1 h 1 v 1 h 1 v 1 h 1 v 1 h 1 v 1 h 1 v 1 h 1 v 1 h 1 v 1 h 1 v 1 h 1 v 1 h 1 v 1 h 1 v 1 h 1 v 1 h 1 v 1 h 1 v 1 h 1 v 1 h 2 v 1 h 1 v 1 h 1 v 1 h 1 v 1 h 1 v 1 h 1 v 1 h 2 v 1 h 1 v 1 h 1 v 1 h 1 v 1 h 1 v 1 h 1 v 1 h 2 v 1 h 1 v 1 h 1 v 1 h 1 v 1 h 2 v 1 h 1 v 1 h 1 v 1 h 2 v 1 h 1 v 1 h 1 v 1 h 1 v 1 h 2 v 1 h 1 v 1 h 1 v 1 h 2 v 1 h 1 v 1 h 2 v 1 h 1 v 1 h 1 v 1 h 2 v 1 h 1 v 1 h 2 v 1 h 1 v 1 h 2 v 1 h 1 v 1 h 2 v 1 h 1 v 1 h 2 v 1 h 1 v 1 h 2 v 1 h 1 v 1 h 2 v 1 h 1 v 1 h 2 v 1 h 1 v 1 h 2 v 1 h 2 v 1 h 1 v 1 h 2 v 1 h 2 v 1 h 2 v 1 h 1 v 1 h 2 v 1 h 2 v 1 h 1 v 1 h 2 v 1 h 2 v 1 h 2 v 1 h 1 v 1 h 2 v 1 h 2 v 1 h 2 v 1 h 2 v 1 h 2 v 1 h 2 v 1 h 2 v 1 h 1 v 1 h 2 v 1 h 2 v 1 h 3 v 1 h 2 v 1 h 2 v 1 h 2 v 1 h 2 v 1 h 2 v 1 h 2 v 1 h 2 v 1 h 2 v 1 h 2 v 1 h 3 v 1 h 2 v 1 h 2 v 1 h 3 v 1 h 2 v 1 h 2 v 1 h 2 v 1 h 3 v 1 h 2 v 1 h 3 v 1 h 2 v 1 h 3 v 1 h 2 v 1 h 3 v 1 h 3 v 1 h 2 v 1 h 3 v 1 h 2 v 1 h 3 v 1 h 3 v 1 h 3 v 1 h 3 v 1 h 3 v 1 h 2 v 1 h 3 v 1 h 4 v 1 h 3 v 1 h 3 v 1 h 3 v 1 h 3 v 1 h 3 v 1 h 4 v 1 h 3 v 1 h 4 v 1 h 3 v 1 h 4 v 1 h 4 v 1 h 3 v 1 h 4 v 1 h 4 v 1 h 4 v 1 h 4 v 1 h 4 v 1 h 4 v 1 h 5 v 1 h 5 v 1 h 4 v 1 h 5 v 1 h 5 v 1 h 5 v 1 h 5 v 1 h 6 v 1 h 6 v 1 h 6 v 1 h 6 v 1 h 7 v 1 h 7 v 1 h 7 v 1 h 8 v 1 h 10 v 1 h 9 v 1 h 12 v 1 h 12 v 1 h 19 v 1 h 81 v -1 h 20 v -1 h 15 v -1 h 9 v -1 h 9 v -1 h 9 v -1 h 10 v -1 h 9 v -1 h 8 v -1 h 6 v -1 h 6 v -1 h 6 v -1 h 5 v -1 h 5 v -1 h 5 v -1 h 6 v -1 h 5 v -1 h 5 v -1 h 5 v -1 h 4 v -1 h 5 v -1 h 4 v -1 h 5 v -1 h 4 v -1 h 3 v -1 h 4 v -1 h 4 v -1 h 3 v -1 h 4 v -1 h 4 v -1 h 3 v -1 h 4 v -1 h 3 v -1 h 4 v -1 h 3 v -1 h 4 v -1 h 3 v -1 h 3 v -1 h 3 v -1 h 3 v -1 h 3 v -1 h 3 v -1 h 3 v -1 h 3 v -1 h 3 v -1 h 2 v -1 h 3 v -1 h 3 v -1 h 2 v -1 h 3 v -1 h 3 v -1 h 2 v -1 h 3 v -1 h 3 v -1 h 2 v -1 h 3 v -1 h 2 v -1 h 2 v -1 h 3 v -1 h 2 v -1 h 2 v -1 h 3 v -1 h 2 v -1 h 2 v -1 h 2 v -1 h 3 v -1 h 2 v -1 h 2 v -1 h 2 v -1 h 2 v -1 h 2 v -1 h 2 v -1 h 2 v -1 h 2 v -1 h 2 v -1 h 2 v -1 h 2 v -1 h 2 v -1 h 2 v -1 h 2 v -1 h 2 v -1 h 2 v -1 h 1 v -1 h 2 v -1 h 2 v -1 h 2 v -1 h 2 v -1 h 1 v -1 h 2 v -1 h 2 v -1 h 2 v -1 h 2 v -1 h 1 v -1 h 2 v -1 h 2 v -1 h 1 v -1 h 2 v -1 h 1 v -1 h 2 v -1 h 2 v -1 h 1 v -1 h 2 v -1 h 1 v -1 h 2 v -1 h 2 v -1 h 1 v -1 h 2 v -1 h 1 v -1 h 2 v -1 h 1 v -1 h 1 v -1 h 2 v -1 h 1 v -1 h 2 v -1 h 1 v -1 h 2 v -1 h 1 v -1 h 1 v -1 h 2 v -1 h 1 v -1 h 2 v -1 h 1 v -1 h 1 v -1 h 2 v -1 h 1 v -1 h 1 v -1 h 1 v -1 h 2 v -1 h 1 v -1 h 1 v -1 h 1 v -1 h 2 v -1 h 1 v -1 h 1 v -1 h 1 v -1 h 2 v -1 h 1 v -1 h 1 v -1 h 1 v -1 h 1 v -1 h 1 v -1 h 2 v -1 h 1 v -1 h 1 v -1 h 1 v -1 h 1 v -1 h 1 v -1 h 1 v -1 h 1 v -1 h 1 v -1 h 2 v -1 h 1 v -1 h 1 v -1 h 1 v -1 h 1 v -1 h 1 v -1 h 1 v -1 h 1 v -1 h 1 v -1 h 1 v -1 h 1 v -1 h 1 v -1 h 1 v -1 h 1 v -1 h 1 v -1 h 1 v -1 h 1 v -1 h 1 v -2 h 1 v -1 h 1 v -1 h 1 v -1 h 1 v -1 h 1 v -1 h 1 v -1 h 1 v -1 h 1 v -2 h 1 v -1 h 1 v -1 h 1 v -1 h 1 v -1 h 1 v -2 h 1 v -1 h 1 v -1 h 1 v -1 h 1 v -1 h 1 v -2 h 1 v -1 h 1 v -1 h 1 v -2 h 1 v -1 h 1 v -1 h 1 v -2 h 1 v -1 h 1 v -2 h 1 v -1 h 1 v -2 h 1 v -1 h 1 v -1 h 1 v -2 h 1 v -1 h 1 v -2 h 1 v -2 h 1 v -1 h 1 v -2 h 1 v -2 h 1 v -1 h 1 v -2 h 1 v -2 h 1 v -1 h 1 v -2 h 1 v -2 h 1 v -2 h 1 v -2 h 1 v -2 h 1 v -2 h 1 v -2 h 1 v -2 h 1 v -2 h 1 v -2 h 1 v -2 h 1 v -2 h 1 v -3 h 1 v -3 h 1 v -2 h 1 v -3 h 1 v -3 h 1 v -2 h 1 v -3 h 1 v -3 h 1 v -4 h 1 v -4 h 1 v -4 h 1 v -3 h 1 v -4 h 1 v -6 h 1 v -6 h 1 v -7 h 1 v -10 h 1 v -31 h -1 v -10 h -1 v -7 h -1 v -7 h -1 v -4 h -1 v -4 h -1 v -5 h -1 v -4 h -1 v -3 h -1 v -3 h -1 v -3 h -1 v -3 h -1 v -3 h -1 v -3 h -1 v -3 h -1 v -2 h -1 v -3 h -1 v -2 h -1 v -2 h -1 v -3 h -1 v -2 h -1 v -2 h -1 v -2 h -1 v -2 h -1 v -2 h -1 v -2 h -1 v -2 h -1 v -2 h -1 v -2 h -1 v -2 h -1 v -2 h -1 v -1 h -1 v -2 h -1 v -2 h -1 v -1 h -1 v -2 h -1 v -1 h -1 v -2 h -1 v -1 h -1 v -2 h -1 v -2 h -1 v -1 h -1 v -2 h -1 v -1 h -1 v -1 h -1 v -2 h -1 v -1 h -1 v -1 h -1 v -2 h -1 v -1 h -1 v -2 h -1 v -1 h -1 v -1 h -1 v -2 h -1 v -1 h -1 v -1 h -1 v -1 h -1 v -1 h -1 v -2 h -1 v -1 h -1 v -1 h -1 v -1 h -1 v -1 h -1 v -2 h -1 v -1 h -1 v -1 h -1 v -1 h -1 v -1 h -1 v -1 h -1 v -1 h -1 v -1 h -1 v -1 h -1 v -1 h -1 v -2 h -1 v -1 h -1 v -1 h -1 v -1 h -1 v -1 h -1 v -1 h -1 v -1 h -1 v -1 h -1 v -1 h -1 v -1 h -1 v -1 h -1 v -1 h -1 v -1 h -1 v -1 h -1 v -1 h -2 v -1 h -1 v -1 h -1 v -1 h -1 v -1 h -1 v -1 h -1 v -1 h -1 v -1 h -1 v -1 h -1 v -1 h -1 v -1 h -1 v -1 h -2 v -1 h -1 v -1 h -1 v -1 h -1 v -1 h -2 v -1 h -1 v -1 h -1 v -1 h -1 v -1 h -1 v -1 h -2 v -1 h -1 v -1 h -1 v -1 h -1 v -1 h -2 v -1 h -1 v -1 h -1 v -1 h -2 v -1 h -1 v -1 h -1 v -1 h -2 v -1 h -1 v -1 h -1 v -1 h -2 v -1 h -1 v -1 h -1 v -1 h -2 v -1 h -1 v -1 h -2 v -1 h -1 v -1 h -2 v -1 h -1 v -1 h -2 v -1 h -1 v -1 h -2 v -1 h -1 v -1 h -2 v -1 h -1 v -1 h -2 v -1 h -1 v -1 h -2 v -1 h -1 v -1 h -2 v -1 h -2 v -1 h -1 v -1 h -2 v -1 h -2 v -1 h -1 v -1 h -2 v -1 h -2 v -1 h -1 v -1 h -2 v -1 h -2 v -1 h -2 v -1 h -1 v -1 h -2 v -1 h -2 v -1 h -2 v -1 h -2 v -1 h -1 v -1 h -2 v -1 h -2 v -1 h -2 v -1 h -2 v -1 h -2 v -1 h -2 v -1 h -2 v -1 h -2 v -1 h -2 v -1 h -2 v -1 h -2 v -1 h -2 v -1 h -2 v -1 h -2 v -1 h -3 v -1 h -2 v -1 h -2 v -1 h -2 v -1 h -2 v -1 h -2 v -1 h -3 v -1 h -2 v -1 h -3 v -1 h -2 v -1 h -3 v -1 h -2 v -1 h -2 v -1 h -3 v -1 h -2 v -1 h -3 v -1 h -2 v -1 h -3 v -1 h -2 v -1 h -3 v -1 h -3 v -1 h -3 v -1 h -3 v -1 h -3 v -1 h -2 v -1 h -3 v -1 h -3 v -1 h -3 v -1 h -3 v -1 h -3 v -1 h -3 v -1 h -3 v -1 h -4 v -1 h -3 v -1 h -3 v -1 h -4 v -1 h -3 v -1 h -3 v -1 h -4 v -1 h -3 v -1 h -4 v -1 h -4 v -1 h -4 v -1 h -4 v -1 h -5 v -1 h -4 v -1 h -4 v -1 h -4 v -1 h -4 v -1 h -5 v -1 h -4 v -1 h -5 v -1 h -5 v -1 h -6 v -1 h -6 v -1 h -6 v -1 h -5 v -1 h -7 v -1 h -7 v -1 h -8 v -1 h -7 v -1 h -8 v -1 h -9 v -1 h -11 v -1 h -11 v -1 h -11 v -1 h -18 v -1 h -27 v -1" /></g></g></g></g><g
         id="g76"><g
           clip-path="url(#clipPath82)"
           id="g78"><path
             id="path84"
             style="fill:#264795;fill-opacity:1;fill-rule:nonzero;stroke:none"
             d="m 722.441,855.383 c -14.433,3.047 -29.043,6.082 -44.062,8.308 C 621.152,845.313 194.629,700.898 196.824,519.91 198.047,421.523 300.039,284.934 344.297,229.805 397.871,216.816 455.469,208.984 515.84,207.355 465.383,263.43 328.32,424.152 314.402,523.906 290.598,694.211 671.008,836.934 722.441,855.383" /><path
             id="path86"
             style="fill:#ee2733;fill-opacity:1;fill-rule:nonzero;stroke:none"
             d="m 456.875,541.359 c -30.828,161.836 284.492,282.129 328.586,297.743 -13.977,4.328 -28.281,8.378 -42.895,11.75 C 687.129,831.652 329.98,701.504 342.52,534.91 351.406,426.379 522.969,249.387 565.371,207.148 c 52.461,1.29 103.184,7.168 150.938,16.836 -54.395,48.118 -233.899,212.879 -259.434,317.375" /><path
             id="path88"
             style="fill:#2fa552;fill-opacity:1;fill-rule:nonzero;stroke:none"
             d="m 594.59,558.906 c -37.871,151.446 205.808,246.008 246.328,260.793 -13.516,5.281 -27.031,10.34 -41.516,15 C 744.355,814.16 463.008,700.566 485.969,550.059 502.031,442.883 707.363,273.594 757.422,233.789 c 46.433,12.219 89.707,28.32 128.379,47.766 -62.11,40.418 -255.059,173.203 -291.211,277.351" /><path
             id="path90"
             style="fill:#121614;fill-opacity:1;fill-rule:nonzero;stroke:none"
             d="m 3262.23,168.699 c -9.67,-1.011 -18.38,-2.156 -36.62,-29.668 L 3186.45,80.5 V 30.625 c 0,-18.6523 3.38,-23.09766 27.19,-23.22266 V 2.19531 h -80.96 v 5.20703 c 25.88,0.59766 26.7,6.26956 26.7,25.93746 v 45.1485 l -34.61,49.5857 c -26.84,38.801 -30.94,39.614 -42.95,40.625 v 5.012 h 74.28 v -5.012 c -12.5,-0.613 -18.83,-0.738 -18.83,-8.054 l 4.49,-11.055 39.07,-57.2658 38,58.1248 3.71,9.602 c 0,8.035 -10.23,8.648 -18.24,8.648 v 5.012 h 57.93 v -5.012" /><path
             id="path92"
             style="fill:#121614;fill-opacity:1;fill-rule:nonzero;stroke:none"
             d="m 3333.4,6.36719 c -20.5,0 -39.08,15.95701 -39.08,55.37111 0,40.8007 20.22,55.1367 39.08,55.1367 18.56,0 38.93,-14.336 38.93,-55.1367 0,-39.4141 -18.58,-55.37111 -38.93,-55.37111 z M 3333.4,0 c 33.11,0 59.96,23.3906 59.96,61.5313 0,41.0077 -30.05,61.9647 -59.96,61.9647 -30.09,0 -59.92,-20.957 -59.92,-61.9647 C 3273.48,23.3906 3300.04,0 3333.4,0" /><path
             id="path94"
             style="fill:#121614;fill-opacity:1;fill-rule:nonzero;stroke:none"
             d="m 3528.77,117.609 c -14.29,-1.484 -17.38,-4.242 -17.38,-22.9215 V 47.9297 c 0,-14.2461 0,-47.9297 -47.56,-47.9297 -45.35,0 -45.35,34.8945 -45.35,45.4414 v 55.9566 c 0,13.231 -2.44,15.254 -16.52,16.211 v 3.387 h 51.76 v -3.387 c -14.38,-1.164 -16.66,-3.437 -16.66,-16.211 V 44.2188 c 0,-11.4844 0,-36.36724 31.93,-36.36724 14.49,0 24.73,5.76174 30.12,14.13284 2.42,3.9844 4.22,9.7929 4.22,24.4609 v 48.2422 c 0,19.0745 -4.48,22.1875 -17.37,22.9215 v 3.387 h 42.81 v -3.387" /><path
             id="path96"
             style="fill:#121614;fill-opacity:1;fill-rule:nonzero;stroke:none"
             d="m 3569.07,107.883 c 0,5.34 1.64,6.426 11.38,6.426 7.54,0 31.55,-0.547 31.55,-24.3363 0,-25.6875 -27.5,-26.0196 -42.93,-26.1641 z M 3652.45,5.77344 c -7.52,0.39844 -11.92,3.71094 -15.84,8.36716 l -37.78,45.4102 c 9.28,1.6328 33.11,6.1015 33.11,30.0781 0,27.5191 -30.43,31.3671 -46.56,31.3671 h -50.39 v -3.387 c 12.71,-1.222 15.41,-2.98 15.41,-16.211 V 23.9375 c 0,-13.3789 -0.69,-17.02344 -15.41,-18.16406 V 2.19531 h 50.5 v 3.57813 c -14.55,0.80859 -16.42,4.17578 -16.42,16.21096 v 35.2109 l 10.31,0.3242 43.63,-55.32419 h 29.44 v 3.57813" /><path
             id="path98"
             style="fill:#121614;fill-opacity:1;fill-rule:nonzero;stroke:none"
             d="m 3839.56,2.19531 h -77.15 v 5.20703 c 24.02,0.83985 24.8,6.73826 24.8,25.93746 V 162.871 h -14.29 c -29.03,0 -36.06,-5.051 -41.94,-33.23 h -6.4 l 1.6,44.07 h 149.35 l 1.58,-44.07 h -6.48 c -5.53,28.457 -12.87,33.23 -41.97,33.23 h -14.49 V 30.625 c 0,-17.6367 3.41,-22.625 25.39,-23.22266 V 2.19531" /><path
             id="path100"
             style="fill:#121614;fill-opacity:1;fill-rule:nonzero;stroke:none"
             d="m 3919.2,107.883 c 0,5.34 1.55,6.426 11.41,6.426 7.54,0 31.31,-0.547 31.31,-24.3363 0,-25.6875 -27.29,-26.0196 -42.72,-26.1641 z M 4002.52,5.77344 c -7.53,0.39844 -11.77,3.71094 -15.87,8.36716 l -37.82,45.4102 c 9.28,1.6328 33.05,6.1015 33.05,30.0781 0,27.5191 -30.06,31.3671 -46.52,31.3671 h -50.63 v -3.387 c 12.99,-1.222 15.74,-2.98 15.74,-16.211 V 23.9375 c 0,-13.3789 -0.68,-17.02344 -15.74,-18.16406 V 2.19531 h 51.02 v 3.57813 c -14.79,0.80859 -16.55,4.17578 -16.55,16.21096 v 35.2109 l 10.18,0.3242 43.63,-55.32419 h 29.51 v 3.57813" /><path
             id="path102"
             style="fill:#121614;fill-opacity:1;fill-rule:nonzero;stroke:none"
             d="m 4125.67,117.609 c -13.91,-1.484 -17.01,-4.242 -17.01,-22.9215 V 47.9297 c 0,-14.2461 0,-47.9297 -47.6,-47.9297 -45.29,0 -45.29,34.8945 -45.29,45.4414 v 55.9566 c 0,13.231 -2.64,15.254 -16.39,16.211 v 3.387 h 51.66 v -3.387 c -14.36,-1.164 -16.66,-3.437 -16.66,-16.211 V 44.2188 c 0,-11.4844 0,-36.36724 31.91,-36.36724 14.34,0 24.81,5.76174 29.95,14.13284 2.57,3.9844 4.35,9.7929 4.35,24.4609 v 48.2422 c 0,19.0745 -4.51,22.1875 -17.3,22.9215 v 3.387 h 42.38 v -3.387" /><path
             id="path104"
             style="fill:#121614;fill-opacity:1;fill-rule:nonzero;stroke:none"
             d="m 4214.89,85.3047 h -4.49 c -3.17,14.7223 -14.89,30.8203 -34.26,30.8203 -8.91,0 -18.36,-5.48 -18.36,-16.6914 0,-26.8438 61.07,-30.3398 61.07,-67.1094 C 4218.85,17.1953 4206.25,0 4180.2,0 c -13.87,0 -22.95,5.97656 -28.46,5.97656 l -5.56,-5.742185 h -4.16 l -5.39,37.832025 h 4.12 c 3.65,-8.3789 13.02,-31.69921 37.67,-31.69921 14.59,0 21.98,10.07811 21.98,19.94141 0,10.0586 -3.01,16.1523 -30,31.7578 -16.63,9.2578 -28.46,17.2461 -28.46,34.9414 0,20.3592 16.68,30.4882 33.2,30.4882 10.8,0 20.9,-6.152 25.39,-6.152 5.12,0 6.14,4.269 6.35,6.152 h 4.04 l 3.97,-38.1913" /><path
             id="path106"
             style="fill:#121614;fill-opacity:1;fill-rule:nonzero;stroke:none"
             d="M 4313.5,2.19531 H 4260 v 3.57813 c 16.68,0.80859 17.58,4.78516 17.58,18.16406 v 89.4295 h -10.15 c -20.04,0 -25.24,-3.258 -29.3,-22.8592 h -4.28 l 1.35,30.4882 h 103.16 l 1.1,-30.4882 h -4.36 c -4,19.7462 -9.02,22.8592 -29.26,22.8592 h -9.82 V 21.9844 c 0,-12.16018 2.19,-15.61721 17.48,-16.21096 V 2.19531" /><path
             id="path108"
             style="fill:#121614;fill-opacity:1;fill-rule:nonzero;stroke:none"
             d="m 4443.93,2.19531 h -98.89 v 3.57813 c 11.59,0.80859 15.77,2.36328 15.77,16.21096 v 79.4136 c 0,14.188 -4.44,15.254 -15.77,16.211 v 3.387 h 97.27 l 0.53,-25.6835 h -4.5 c -2.91,16.0745 -7.63,18.8595 -28.12,18.8595 h -24.53 c -3.89,0 -6.23,0 -6.23,-6.152 V 68.2617 h 28.2 c 16.45,0 18.36,4.3281 20.16,17.043 h 4.53 V 43.8086 h -4.53 c -2.21,14.3945 -4.81,16.8281 -20.16,17.0312 l -28.2,0.3438 V 16.6992 c 0,-7.21482 0,-7.55857 27.5,-7.55857 22.89,0 32.11,5.47657 40,23.59377 h 5.19 l -8.22,-30.53909" /><path
             id="path110"
             style="fill:#121614;fill-opacity:1;fill-rule:nonzero;stroke:none"
             d="m 4492.52,107.277 c 0,3.575 0,7.032 8.5,7.032 23.2,0 33.46,-4.946 42.34,-12.571 12.48,-10.9567 16.82,-25.6247 16.82,-40.5544 0,-52.04297 -44.9,-52.04297 -56.84,-52.04297 -8.86,0 -10.82,1.07417 -10.82,7.22657 z M 4457.6,2.19531 h 52.03 c 56,0 70.47,35.27739 70.47,58.98829 0,40.2144 -28.96,59.8124 -72.93,59.8124 h -49.57 v -3.387 c 14.18,-1.164 16.27,-2.98 16.27,-16.211 V 21.9844 c 0,-12.50002 -2.34,-15.40237 -16.27,-16.21096 V 2.19531" /><path
             id="path112"
             style="fill:#121614;fill-opacity:1;fill-rule:nonzero;stroke:none"
             d="m 4706.65,155.313 c 0,8.527 2.73,8.652 10.74,8.652 11.74,0 50.08,-0.391 50.08,-37.434 0,-39.3357 -35.22,-39.3357 -45.04,-39.3357 -5.47,0 -10.94,0.4141 -15.78,0.8789 z m -49.42,13.386 c 19.32,-1.824 22.31,-4.859 22.31,-23.238 V 33.3398 c 0,-18.457 0,-24.39449 -22.31,-25.93746 V 2.19531 h 74.2 V 7.40234 C 4711.08,8 4706.65,11.7109 4706.65,30.625 v 46.9727 c 6.21,-0.4688 11.27,-0.6836 17.79,-0.6836 27.54,0 44.55,4.539 55.9,15.4101 4.53,3.9258 16.38,14.4058 16.38,34.7388 0,32.988 -33.04,46.648 -69.51,46.648 h -69.98 v -5.012" /><path
             id="path114"
             style="fill:#121614;fill-opacity:1;fill-rule:nonzero;stroke:none"
             d="m 4839.87,48.6055 21.21,49.0703 21.21,-49.0703 z m 89.82,-42.83206 c -8.14,0.59375 -10.88,2.46875 -16.58,15.74996 l -45.62,101.6216 h -3.72 l -37.94,-87.9106 c -3.58,-7.9688 -9.22,-21.0938 -13.38,-25.41018 l -9.44,-4.05078 V 2.19531 h 36.47 v 3.57813 c -3.95,0 -12.7,0 -12.7,7.49996 l 1.56,6.8829 8.33,21.0156 h 48.14 l 7.38,-17.2344 3.56,-11.3672 c 0,-6.59374 -5.9,-6.79686 -12.83,-6.79686 V 2.19531 h 46.77 v 3.57813" /><path
             id="path116"
             style="fill:#121614;fill-opacity:1;fill-rule:nonzero;stroke:none"
             d="m 4969.93,107.883 c 0,5.34 1.72,6.426 11.32,6.426 7.62,0 31.68,-0.547 31.68,-24.3363 0,-25.6875 -27.65,-26.0196 -43,-26.1641 z M 5053.25,5.77344 c -7.42,0.39844 -11.78,3.71094 -15.88,8.36716 l -37.79,45.4102 c 9.23,1.6328 33.22,6.1015 33.22,30.0781 0,27.5191 -30.26,31.3671 -46.66,31.3671 h -50.53 v -3.387 c 12.85,-1.222 15.66,-2.98 15.66,-16.211 V 23.9375 c 0,-13.3789 -0.76,-17.02344 -15.66,-18.16406 V 2.19531 h 50.84 v 3.57813 c -14.69,0.80859 -16.52,4.17578 -16.52,16.21096 v 35.2109 l 10.23,0.3242 43.97,-55.32419 h 29.12 v 3.57813" /><path
             id="path118"
             style="fill:#121614;fill-opacity:1;fill-rule:nonzero;stroke:none"
             d="m 5126.65,2.19531 h -53.46 v 3.57813 c 16.64,0.80859 17.05,4.78516 17.05,18.16406 v 89.4295 h -9.9 c -20.08,0 -25.04,-3.258 -29.2,-22.8592 h -4.16 l 1.05,30.4882 h 103.24 l 1.06,-30.4882 h -4.24 c -3.75,19.7462 -9,22.8592 -29.18,22.8592 h -9.96 V 21.9844 c 0,-12.16018 2.17,-15.61721 17.7,-16.21096 V 2.19531" /><path
             id="path120"
             style="fill:#121614;fill-opacity:1;fill-rule:nonzero;stroke:none"
             d="m 5285.14,117.609 c -11.62,-1.222 -17.22,-2.023 -17.22,-22.9215 V 0.480469 h -3.13 l -80.7,97.988331 h -0.3 V 28.8867 c 0,-18.6719 3.99,-22.51951 17.29,-23.11326 V 2.19531 h -43.11 v 3.57813 c 14.16,1.14062 17.74,3.71094 17.74,23.11326 v 78.9963 c -7.64,8.769 -10.53,9.726 -17.74,9.726 v 3.387 h 31.41 l 70,-86.1015 h 0.33 v 59.793 c 0,20.4295 -5.02,21.9645 -17.48,22.9215 v 3.387 h 42.91 v -3.387" /><path
             id="path122"
             style="fill:#121614;fill-opacity:1;fill-rule:nonzero;stroke:none"
             d="m 5389.09,2.19531 h -98.97 v 3.57813 c 11.97,0.80859 16.08,2.36328 16.08,16.21096 v 79.4136 c 0,14.188 -4.48,15.254 -16.08,16.211 v 3.387 h 97.29 l 0.54,-25.6835 h -4.62 c -2.62,16.0745 -7.37,18.8595 -27.76,18.8595 h -24.8 c -3.75,0 -6.1,0 -6.1,-6.152 V 68.2617 h 28.48 c 16.37,0 17.89,4.3281 20.14,17.043 h 4.2 V 43.8086 h -4.2 c -2.37,14.3945 -4.98,16.8281 -20.14,17.0312 l -28.48,0.3438 V 16.6992 c 0,-7.21482 0,-7.55857 27.52,-7.55857 22.8,0 31.9,5.47657 39.96,23.59377 h 5.26 l -8.32,-30.53909" /><path
             id="path124"
             style="fill:#121614;fill-opacity:1;fill-rule:nonzero;stroke:none"
             d="m 5437.29,107.883 c 0,5.34 1.56,6.426 11.41,6.426 7.42,0 31.38,-0.547 31.38,-24.3363 0,-25.6875 -27.42,-26.0196 -42.79,-26.1641 z M 5520.61,5.77344 c -7.25,0.39844 -12.01,3.71094 -15.76,8.36716 l -37.95,45.4102 c 9.43,1.6328 33.2,6.1015 33.2,30.0781 0,27.5191 -30.08,31.3671 -46.36,31.3671 h -50.61 v -3.387 c 12.83,-1.222 15.45,-2.98 15.45,-16.211 V 23.9375 c 0,-13.3789 -0.61,-17.02344 -15.45,-18.16406 V 2.19531 h 50.68 v 3.57813 c -14.45,0.80859 -16.52,4.17578 -16.52,16.21096 v 35.2109 l 10.14,0.3242 43.92,-55.32419 h 29.26 v 3.57813" /><path
             id="path126"
             style="fill:#121614;fill-opacity:1;fill-rule:nonzero;stroke:none"
             d="m 1286.95,686.984 h 73.79 c 47.66,0 83.14,-6.015 106.53,-17.714 22.94,-11.567 42.01,-30.625 56.97,-57.043 15.04,-26.348 22.52,-56.985 22.52,-92.11 0,-25.066 -4.1,-48.191 -12.57,-69.14 -8.31,-20.95 -19.91,-38.45 -34.81,-52.227 -14.79,-13.926 -30.75,-23.523 -47.8,-28.801 -17.35,-5.406 -47.08,-7.832 -89.48,-7.832 h -75.15 z m 62.21,-60.695 V 422.527 h 29.08 c 28.28,0 49.13,3.325 61.91,9.59 12.8,6.379 23.4,17.317 31.59,32.512 8.09,15.41 12.07,34.062 12.07,56.367 0,34.531 -9.57,61.16 -28.93,79.883 -17.58,17.023 -45.65,25.41 -84.53,25.41 h -21.19" /><path
             id="path128"
             style="fill:#121614;fill-opacity:1;fill-rule:nonzero;stroke:none"
             d="m 1599.9,602.156 h 61.18 V 486.453 c 0,-22.644 1.24,-38.445 4.64,-46.949 3.2,-8.867 8.07,-15.617 15.14,-20.422 7.14,-4.797 15.53,-7.297 25.72,-7.297 10.22,0 19.12,2.5 26.15,7.297 7.17,4.656 12.41,11.555 15.96,20.867 2.42,7.121 3.61,21.848 3.61,44.485 v 117.722 h 61.33 V 500.441 c 0,-41.945 -3.47,-70.8 -10.21,-86.156 -8.13,-18.855 -20.22,-33.18 -36.31,-43.387 -15.88,-10.078 -36.23,-15.078 -60.53,-15.078 -26.72,0 -48.2,5.821 -64.82,17.578 -16.53,11.907 -27.95,28.262 -34.77,49.473 -4.76,14.473 -7.09,40.82 -7.09,79.285 v 100" /><path
             id="path130"
             style="fill:#121614;fill-opacity:1;fill-rule:nonzero;stroke:none"
             d="m 1881.54,690.898 h 61.06 v -88.742 h 35.76 v -51.89 H 1942.6 V 362.117 h -61.06 v 188.149 h -31.43 v 51.89 h 31.43 v 88.742" /><path
             id="path132"
             style="fill:#121614;fill-opacity:1;fill-rule:nonzero;stroke:none"
             d="m 2248.44,553.84 -50.71,-27.375 c -9.29,9.746 -18.86,16.562 -28.12,20.273 -9.26,3.914 -20.39,5.742 -32.79,5.742 -22.83,0 -41.13,-6.746 -55.06,-20.273 -14.06,-13.387 -21.12,-30.547 -21.12,-51.562 0,-20.352 6.72,-37.227 20.31,-50.008 13.43,-12.961 31.14,-19.399 53.11,-19.399 27.21,0 48.44,9.203 63.67,27.582 l 47.94,-32.57 c -25.97,-33.723 -62.81,-50.43 -110.32,-50.43 -42.59,0 -75.97,12.434 -100.31,37.508 -24,24.934 -36.02,54.281 -36.02,88 0,23.106 5.84,44.61 17.66,64.27 11.62,19.461 28.06,34.871 49.11,46.015 21.16,11.231 44.59,16.766 70.46,16.766 24.24,0 45.88,-4.734 65.13,-13.984 19.28,-9.461 34.99,-23.047 47.06,-40.555" /><path
             id="path134"
             style="fill:#121614;fill-opacity:1;fill-rule:nonzero;stroke:none"
             d="m 2303.2,694.668 h 61.26 V 577.98 c 11.84,10.067 23.81,17.696 35.75,22.762 11.95,5.125 24.23,7.637 36.58,7.637 23.9,0 44.17,-8.25 60.72,-24.602 14.07,-14.312 21.02,-35.332 21.02,-62.976 V 362.117 h -59.8 v 105.219 c 0,27.715 -1.37,46.504 -4.11,56.426 -2.74,9.89 -7.22,17.105 -13.66,21.972 -6.55,4.918 -14.34,7.352 -23.89,7.352 -12.17,0 -22.96,-4.121 -31.7,-12.219 -8.88,-8.113 -14.97,-19.058 -18.38,-33.125 -1.7,-7.301 -2.53,-23.66 -2.53,-49.246 v -96.379 h -61.26 v 332.551" /><path
             id="path136"
             style="fill:#121614;fill-opacity:1;fill-rule:nonzero;stroke:none"
             d="m 2585.88,453.613 h 113.223 v 55.8984 H 2585.88 Z" /><path
             id="path138"
             style="fill:#121614;fill-opacity:1;fill-rule:nonzero;stroke:none"
             d="m 2776.06,362.117 v 324.867 h 51.6 c 30,0 51.74,-2.035 65.55,-5.879 19.86,-5.148 35.33,-14.542 46.97,-28.73 11.56,-14.121 17.48,-30.41 17.48,-49.531 0,-12.364 -2.6,-23.742 -8.01,-33.996 -5.23,-9.942 -13.86,-19.473 -25.8,-28.184 19.65,-9.258 34.26,-20.754 43.36,-34.734 9.16,-13.664 13.81,-30.356 13.81,-49.414 0,-18.02 -4.8,-34.731 -14.12,-49.582 -9.65,-15.032 -21.95,-26.368 -36.8,-33.731 -15.04,-7.508 -35.72,-11.086 -62.48,-11.086 z m 62.25,265.988 v -68.867 h 13.77 c 15.09,0 26.64,3.391 34,9.492 7.32,6.458 11.07,15.254 11.07,26.133 0,10.215 -3.41,18.313 -10.66,24.192 -7.09,6.082 -17.52,9.05 -31.93,9.05 z m 0,-124.207 V 420.84 h 15.56 c 26.06,0 43.52,3.312 52.58,9.797 8.95,6.226 13.65,15.75 13.65,28.054 0,13.926 -5.31,25.059 -15.97,33.039 -10.69,8.055 -28.13,12.168 -52.84,12.168 h -12.98" /><path
             id="path140"
             style="fill:#121614;fill-opacity:1;fill-rule:nonzero;stroke:none"
             d="m 3212.97,602.156 h 61.02 V 362.117 h -61.02 v 25.41 c -11.95,-11.367 -23.96,-19.273 -35.84,-24.199 -12.01,-4.996 -24.86,-7.508 -38.88,-7.508 -31.16,0 -58.56,12.102 -81.43,36.082 -22.69,24.067 -34.02,53.891 -34.02,89.692 0,37.226 11.01,67.519 33.1,91.308 22.05,23.602 48.91,35.477 80.53,35.477 14.63,0 28.15,-2.637 41.17,-8.098 12.64,-5.418 24.42,-13.59 35.37,-24.351 z m -64.12,-49.07 c -18.86,0 -34.45,-6.68 -46.83,-19.863 -12.56,-13.106 -18.91,-30.059 -18.91,-50.606 0,-20.754 6.48,-37.988 19.1,-51.308 12.64,-13.496 28.28,-20.071 46.96,-20.071 19.1,0 34.96,6.575 47.57,19.668 12.66,13.188 18.93,30.481 18.93,51.828 0,20.832 -6.27,37.793 -18.93,50.918 -12.61,12.754 -28.77,19.434 -47.89,19.434" /><path
             id="path142"
             style="fill:#121614;fill-opacity:1;fill-rule:nonzero;stroke:none"
             d="m 3335.67,602.156 h 60.92 v -24.722 c 14.1,11.621 26.54,19.589 37.48,24.199 11.31,4.59 22.91,6.746 34.47,6.746 24.1,0 44.43,-8.445 61.29,-24.941 14.04,-14.043 21.07,-34.993 21.07,-62.637 V 362.117 h -60.84 v 105.09 c 0,28.367 -1.46,47.578 -4.1,57.031 -2.48,9.414 -7.09,16.485 -13.42,21.496 -6.38,4.918 -14.25,7.352 -23.59,7.352 -12.15,0 -22.54,-4.121 -31.48,-12.219 -8.56,-8.387 -14.67,-19.383 -17.89,-33.992 -2.06,-7.441 -2.99,-23.652 -2.99,-48.66 v -96.098 h -60.92 v 240.039" /><path
             id="path144"
             style="fill:#121614;fill-opacity:1;fill-rule:nonzero;stroke:none"
             d="m 3789.34,602.156 h 60.47 v -205.64 c 0,-40.547 -8.2,-70.43 -24.59,-89.551 -22.4,-25.742 -55.51,-38.789 -100.27,-38.789 -23.62,0 -43.62,2.781 -59.79,8.797 -16.13,5.949 -29.8,14.648 -41.13,26.074 -10.84,11.211 -19.2,25.137 -24.51,41.496 h 66.89 c 6.11,-6.953 13.63,-12.238 22.91,-15.676 9.55,-3.586 20.53,-5.273 33.18,-5.273 16.51,0 29.65,2.492 39.61,7.566 9.81,5.078 16.94,11.567 21.18,19.602 3.92,8.125 6.05,21.914 6.05,41.426 -10.84,-10.684 -21.89,-18.45 -33.92,-23.172 -11.65,-4.543 -24.89,-6.899 -39.87,-6.899 -32.3,0 -59.84,11.567 -82.22,34.946 -22.27,22.964 -33.74,52.371 -33.74,88.328 0,37.968 11.96,68.449 35.77,91.433 21.46,21.008 47.28,31.555 77.18,31.555 13.77,0 26.9,-2.512 39.44,-7.637 12.32,-5.066 24.82,-13.504 37.36,-25.137 z m -63.3,-50.211 c -18.96,0 -34.79,-6.347 -47.23,-18.984 -12.48,-12.707 -18.57,-28.527 -18.57,-47.57 0,-19.864 6.46,-36.278 19.24,-48.946 12.65,-12.707 28.44,-19.043 47.81,-19.043 18.67,0 34.28,6.336 46.58,18.633 12.21,12.371 18.17,28.594 18.17,48.82 0,19.922 -5.96,35.946 -18.36,48.368 -12.29,12.511 -28.05,18.722 -47.64,18.722" /><path
             id="path146"
             style="fill:#121614;fill-opacity:1;fill-rule:nonzero;stroke:none"
             d="m 3904.42,362.117 h 61.1875 V 694.668 H 3904.42 Z" /><path
             id="path148"
             style="fill:#121614;fill-opacity:1;fill-rule:nonzero;stroke:none"
             d="m 4199.46,602.156 h 61.17 V 362.117 h -61.17 v 25.41 c -11.9,-11.367 -23.95,-19.273 -35.57,-24.199 -12.15,-4.996 -25.14,-7.508 -39.08,-7.508 -31.19,0 -58.4,12.102 -81.27,36.082 -22.73,24.067 -34.47,53.891 -34.47,89.692 0,37.226 11.27,67.519 33.51,91.308 22.05,23.602 48.89,35.477 80.57,35.477 14.51,0 28.12,-2.637 41.07,-8.098 12.68,-5.418 24.5,-13.59 35.24,-24.351 z m -64.01,-49.07 c -18.73,0 -34.45,-6.68 -46.89,-19.863 -12.6,-13.106 -18.71,-30.059 -18.71,-50.606 0,-20.754 6.44,-37.988 19.12,-51.308 12.62,-13.496 28.34,-20.071 46.84,-20.071 19.12,0 35.07,6.575 47.53,19.668 12.7,13.188 18.97,30.481 18.97,51.828 0,20.832 -6.27,37.793 -18.97,50.918 -12.46,12.754 -28.41,19.434 -47.89,19.434" /><path
             id="path150"
             style="fill:#121614;fill-opacity:1;fill-rule:nonzero;stroke:none"
             d="m 4456.92,362.117 v 324.867 h 51.41 c 30.11,0 52.12,-2.035 65.93,-5.879 19.49,-5.148 35.24,-14.542 46.84,-28.73 11.62,-14.121 17.32,-30.41 17.32,-49.531 0,-12.364 -2.59,-23.742 -7.85,-33.996 -5.25,-9.942 -14.02,-19.473 -25.88,-28.184 19.79,-9.258 34.34,-20.754 43.42,-34.734 9.12,-13.664 13.83,-30.356 13.83,-49.414 0,-18.02 -4.79,-34.731 -14.24,-49.582 -9.71,-15.032 -21.86,-26.368 -36.86,-33.731 -14.98,-7.508 -35.74,-11.086 -61.99,-11.086 z m 62.21,265.988 v -68.867 h 13.57 c 15.47,0 26.7,3.391 34.18,9.492 7.38,6.458 11.04,15.254 11.04,26.133 0,10.215 -3.56,18.313 -10.47,24.192 -7,6.082 -17.87,9.05 -32.13,9.05 z m 0,-124.207 V 420.84 h 15.78 c 25.8,0 43.28,3.312 52.3,9.797 9.12,6.226 13.62,15.75 13.62,28.054 0,13.926 -5.28,25.059 -15.79,33.039 -10.68,8.055 -28.37,12.168 -53.02,12.168 h -12.89" /><path
             id="path152"
             style="fill:#121614;fill-opacity:1;fill-rule:nonzero;stroke:none"
             d="m 4893.91,602.156 h 60.94 V 362.117 h -60.94 v 25.41 c -11.89,-11.367 -24,-19.273 -35.86,-24.199 -11.99,-4.996 -25,-7.508 -38.87,-7.508 -31.34,0 -58.37,12.102 -81.42,36.082 -22.72,24.067 -34.28,53.891 -34.28,89.692 0,37.226 11.15,67.519 33.3,91.308 22.13,23.602 49.01,35.477 80.71,35.477 14.35,0 28,-2.637 40.97,-8.098 12.74,-5.418 24.46,-13.59 35.45,-24.351 z m -64.12,-49.07 c -18.98,0 -34.61,-6.68 -47.01,-19.863 -12.35,-13.106 -18.61,-30.059 -18.61,-50.606 0,-20.754 6.26,-37.988 18.71,-51.308 13.02,-13.496 28.57,-20.071 47.18,-20.071 19.11,0 34.98,6.575 47.54,19.668 12.52,13.188 19.1,30.481 19.1,51.828 0,20.832 -6.58,37.793 -19.1,50.918 -12.56,12.754 -28.43,19.434 -47.81,19.434" /><path
             id="path154"
             style="fill:#121614;fill-opacity:1;fill-rule:nonzero;stroke:none"
             d="m 5016.35,602.156 h 61.25 v -24.722 c 13.87,11.621 26.25,19.589 37.66,24.199 11.03,4.59 22.52,6.746 34.28,6.746 24.02,0 44.39,-8.445 61.3,-24.941 13.91,-14.043 20.92,-34.993 20.92,-62.637 V 362.117 h -61.07 v 105.09 c 0,28.367 -1.47,47.578 -3.69,57.031 -2.87,9.414 -7.09,16.485 -13.52,21.496 -6.42,4.918 -14.37,7.352 -23.63,7.352 -12.33,0 -22.7,-4.121 -31.41,-12.219 -8.61,-8.387 -14.76,-19.383 -18.16,-33.992 -1.92,-7.441 -2.68,-23.652 -2.68,-48.66 v -96.098 h -61.25 v 240.039" /><path
             id="path156"
             style="fill:#121614;fill-opacity:1;fill-rule:nonzero;stroke:none"
             d="m 5291.27,694.668 h 60.92 V 503.223 l 89.48,98.933 h 75.68 L 5413.83,487.742 5530.55,362.117 h -75.51 l -102.85,110.5 v -110.5 h -60.92 v 332.551" /></g></g></g></g></svg>